<svg width="256" height="45" viewBox="0 0 256 45" fill="none" xmlns="http://www.w3.org/2000/svg">
<rect x="0.5" y="0.75" width="255.42" height="44" rx="5" fill="#3BB77E"/>
<g clip-path="url(#clip0_6511_1171)">
<path d="M27.86 22.0567H20.5V16.7233C20.5 16.19 20.6956 15.7278 21.0867 15.3367C21.4778 14.9456 21.9578 14.75 22.5267 14.75H27.86V22.0567ZM21.8333 20.7233H26.5267V16.0833H22.5267C22.3133 16.0833 22.1444 16.1456 22.02 16.27C21.8956 16.3944 21.8333 16.5456 21.8333 16.7233V20.7233ZM36.5 22.0567H29.1933V14.75H34.5267C35.06 14.75 35.5222 14.9456 35.9133 15.3367C36.3044 15.7278 36.5 16.2078 36.5 16.7767V22.0567ZM30.5267 20.7233H35.1667V16.7233C35.1667 16.5456 35.1044 16.3944 34.98 16.27C34.8556 16.1456 34.7044 16.0833 34.5267 16.0833H30.5267V20.7233ZM27.86 30.75H22.5267C21.9578 30.75 21.4778 30.5544 21.0867 30.1633C20.6956 29.7722 20.5 29.31 20.5 28.7767V23.39H27.86V30.75ZM21.8333 24.7233V28.7233C21.8333 28.9367 21.8956 29.1056 22.02 29.23C22.1444 29.3544 22.3133 29.4167 22.5267 29.4167H26.5267V24.7233H21.8333ZM34.5267 30.75H29.1933V23.39H36.5V28.7233C36.5 29.2922 36.3044 29.7722 35.9133 30.1633C35.5222 30.5544 35.0422 30.75 34.4733 30.75H34.5267ZM30.5267 29.4167H34.5267C34.7044 29.4167 34.8556 29.3544 34.98 29.23C35.1044 29.1056 35.1667 28.9367 35.1667 28.7233V24.7233H30.5267V29.4167Z" fill="white"/>
</g>
<path d="M49.708 17.55C50.732 17.55 51.4947 17.79 51.996 18.27C52.4973 18.75 52.748 19.4593 52.748 20.398C52.748 20.8993 52.6253 21.342 52.38 21.726C52.1347 22.0993 51.772 22.3927 51.292 22.606C50.812 22.8087 50.22 22.91 49.516 22.91L49.58 22.19C49.9107 22.19 50.2893 22.238 50.716 22.334C51.1427 22.4193 51.5533 22.5793 51.948 22.814C52.3533 23.038 52.684 23.358 52.94 23.774C53.2067 24.1793 53.34 24.702 53.34 25.342C53.34 26.046 53.2227 26.622 52.988 27.07C52.764 27.518 52.4653 27.8647 52.092 28.11C51.7187 28.3553 51.3187 28.526 50.892 28.622C50.4653 28.7073 50.0547 28.75 49.66 28.75H45.676C45.3987 28.75 45.164 28.6593 44.972 28.478C44.7907 28.286 44.7 28.0513 44.7 27.774V18.526C44.7 18.2487 44.7907 18.0193 44.972 17.838C45.164 17.646 45.3987 17.55 45.676 17.55H49.708ZM49.42 19.438H46.572L46.78 19.182V22.078L46.588 21.934H49.468C49.7773 21.934 50.0547 21.8327 50.3 21.63C50.5453 21.4273 50.668 21.134 50.668 20.75C50.668 20.2913 50.5507 19.9607 50.316 19.758C50.092 19.5447 49.7933 19.438 49.42 19.438ZM49.548 23.822H46.636L46.78 23.694V27.07L46.62 26.91H49.66C50.1507 26.91 50.54 26.782 50.828 26.526C51.116 26.2593 51.26 25.8647 51.26 25.342C51.26 24.862 51.164 24.5153 50.972 24.302C50.78 24.0887 50.5507 23.9553 50.284 23.902C50.0173 23.8487 49.772 23.822 49.548 23.822ZM55.9844 28.75C55.707 28.75 55.4777 28.6593 55.2964 28.478C55.115 28.286 55.0244 28.0513 55.0244 27.774V21.166C55.0244 20.8887 55.115 20.6593 55.2964 20.478C55.4777 20.286 55.707 20.19 55.9844 20.19C56.2617 20.19 56.491 20.286 56.6724 20.478C56.8537 20.6593 56.9444 20.8887 56.9444 21.166V22.67L56.8324 21.598C56.9497 21.342 57.099 21.118 57.2804 20.926C57.4724 20.7233 57.6857 20.558 57.9204 20.43C58.155 20.2913 58.4057 20.19 58.6724 20.126C58.939 20.062 59.2057 20.03 59.4724 20.03C59.7924 20.03 60.059 20.1207 60.2724 20.302C60.4964 20.4833 60.6084 20.6967 60.6084 20.942C60.6084 21.294 60.5177 21.55 60.3364 21.71C60.155 21.8593 59.9577 21.934 59.7444 21.934C59.5417 21.934 59.355 21.8967 59.1844 21.822C59.0244 21.7473 58.8377 21.71 58.6244 21.71C58.4324 21.71 58.235 21.758 58.0324 21.854C57.8404 21.9393 57.659 22.078 57.4884 22.27C57.3284 22.462 57.195 22.702 57.0884 22.99C56.9924 23.2673 56.9444 23.598 56.9444 23.982V27.774C56.9444 28.0513 56.8537 28.286 56.6724 28.478C56.491 28.6593 56.2617 28.75 55.9844 28.75ZM69.9065 24.478C69.9065 25.3527 69.7092 26.126 69.3145 26.798C68.9305 27.4593 68.4078 27.9767 67.7465 28.35C67.0958 28.7233 66.3652 28.91 65.5545 28.91C64.7438 28.91 64.0078 28.7233 63.3465 28.35C62.6958 27.9767 62.1732 27.4593 61.7785 26.798C61.3945 26.126 61.2025 25.3527 61.2025 24.478C61.2025 23.6033 61.3945 22.8353 61.7785 22.174C62.1732 21.502 62.6958 20.9793 63.3465 20.606C64.0078 20.222 64.7438 20.03 65.5545 20.03C66.3652 20.03 67.0958 20.222 67.7465 20.606C68.4078 20.9793 68.9305 21.502 69.3145 22.174C69.7092 22.8353 69.9065 23.6033 69.9065 24.478ZM67.9865 24.478C67.9865 23.934 67.8745 23.4647 67.6505 23.07C67.4372 22.6647 67.1438 22.35 66.7705 22.126C66.4078 21.902 66.0025 21.79 65.5545 21.79C65.1065 21.79 64.6958 21.902 64.3225 22.126C63.9598 22.35 63.6665 22.6647 63.4425 23.07C63.2292 23.4647 63.1225 23.934 63.1225 24.478C63.1225 25.0113 63.2292 25.4807 63.4425 25.886C63.6665 26.2807 63.9598 26.59 64.3225 26.814C64.6958 27.038 65.1065 27.15 65.5545 27.15C66.0025 27.15 66.4078 27.038 66.7705 26.814C67.1438 26.59 67.4372 26.2807 67.6505 25.886C67.8745 25.4807 67.9865 25.0113 67.9865 24.478ZM81.4429 20.19C81.6882 20.19 81.9015 20.286 82.0829 20.478C82.2642 20.6593 82.3549 20.894 82.3549 21.182C82.3549 21.2567 82.3495 21.326 82.3389 21.39C82.3282 21.4433 82.3122 21.4967 82.2909 21.55L79.8429 28.142C79.7682 28.3553 79.6349 28.5207 79.4429 28.638C79.2509 28.7447 79.0482 28.782 78.8349 28.75C78.4722 28.7287 78.2002 28.526 78.0189 28.142L76.4349 23.582L76.8509 23.598L75.3629 28.142C75.1815 28.526 74.9095 28.7287 74.5469 28.75C74.3442 28.782 74.1415 28.7447 73.9389 28.638C73.7469 28.5207 73.6135 28.3553 73.5389 28.142L71.0909 21.55C71.0482 21.4327 71.0269 21.31 71.0269 21.182C71.0269 20.926 71.1122 20.6967 71.2829 20.494C71.4535 20.2913 71.6882 20.19 71.9869 20.19C72.1895 20.19 72.3709 20.238 72.5309 20.334C72.6909 20.43 72.8029 20.5847 72.8669 20.798L74.8029 26.046L74.4029 26.014L75.8589 22.062C76.0295 21.6673 76.3229 21.47 76.7389 21.47C76.9735 21.47 77.1495 21.5233 77.2669 21.63C77.3949 21.726 77.4962 21.87 77.5709 22.062L79.0269 26.014L78.5469 26.078L80.5149 20.798C80.6429 20.3927 80.9522 20.19 81.4429 20.19ZM83.294 27.422C83.1873 27.2727 83.1393 27.0807 83.15 26.846C83.1607 26.6113 83.2993 26.4087 83.566 26.238C83.7367 26.1313 83.918 26.0887 84.11 26.11C84.302 26.1207 84.4887 26.2167 84.67 26.398C84.9793 26.7073 85.3047 26.9473 85.646 27.118C85.9873 27.2887 86.414 27.374 86.926 27.374C87.086 27.3633 87.262 27.342 87.454 27.31C87.646 27.2673 87.8113 27.182 87.95 27.054C88.0993 26.9153 88.174 26.7073 88.174 26.43C88.174 26.1953 88.094 26.0087 87.934 25.87C87.774 25.7313 87.5607 25.614 87.294 25.518C87.038 25.422 86.75 25.3313 86.43 25.246C86.0993 25.15 85.758 25.0433 85.406 24.926C85.0647 24.8087 84.75 24.6593 84.462 24.478C84.174 24.286 83.9393 24.0353 83.758 23.726C83.5767 23.4167 83.486 23.0273 83.486 22.558C83.486 22.0247 83.6353 21.5713 83.934 21.198C84.2327 20.8247 84.6167 20.5367 85.086 20.334C85.566 20.1313 86.0673 20.03 86.59 20.03C86.9207 20.03 87.2673 20.0727 87.63 20.158C87.9927 20.2327 88.3393 20.3607 88.67 20.542C89.0007 20.7127 89.278 20.942 89.502 21.23C89.6193 21.39 89.6887 21.582 89.71 21.806C89.7313 22.03 89.63 22.2327 89.406 22.414C89.246 22.542 89.0593 22.6007 88.846 22.59C88.6327 22.5687 88.4567 22.494 88.318 22.366C88.1367 22.1313 87.8913 21.9447 87.582 21.806C87.2833 21.6673 86.9367 21.598 86.542 21.598C86.382 21.598 86.206 21.6193 86.014 21.662C85.8327 21.694 85.6727 21.774 85.534 21.902C85.3953 22.0193 85.326 22.2113 85.326 22.478C85.326 22.7233 85.406 22.9207 85.566 23.07C85.726 23.2087 85.9393 23.326 86.206 23.422C86.4833 23.5073 86.7767 23.5927 87.086 23.678C87.406 23.7633 87.7313 23.8647 88.062 23.982C88.3927 24.0993 88.6967 24.254 88.974 24.446C89.2513 24.638 89.4753 24.8887 89.646 25.198C89.8167 25.4967 89.902 25.8807 89.902 26.35C89.902 26.894 89.742 27.358 89.422 27.742C89.102 28.126 88.702 28.4193 88.222 28.622C87.742 28.814 87.2513 28.91 86.75 28.91C86.1207 28.91 85.4913 28.8033 84.862 28.59C84.2327 28.366 83.71 27.9767 83.294 27.422ZM95.5408 28.91C94.6341 28.91 93.8448 28.7233 93.1728 28.35C92.5114 27.966 91.9994 27.4487 91.6368 26.798C91.2848 26.1473 91.1088 25.4113 91.1088 24.59C91.1088 23.63 91.3008 22.814 91.6848 22.142C92.0794 21.4593 92.5914 20.9367 93.2208 20.574C93.8501 20.2113 94.5168 20.03 95.2208 20.03C95.7648 20.03 96.2768 20.142 96.7568 20.366C97.2474 20.59 97.6794 20.8993 98.0528 21.294C98.4261 21.678 98.7194 22.126 98.9328 22.638C99.1568 23.15 99.2688 23.694 99.2688 24.27C99.2581 24.526 99.1568 24.734 98.9648 24.894C98.7728 25.054 98.5488 25.134 98.2928 25.134H92.1808L91.7008 23.534H97.5728L97.2208 23.854V23.422C97.1994 23.1127 97.0874 22.8353 96.8848 22.59C96.6928 22.3447 96.4474 22.1527 96.1488 22.014C95.8608 21.8647 95.5514 21.79 95.2208 21.79C94.9008 21.79 94.6021 21.8327 94.3248 21.918C94.0474 22.0033 93.8074 22.1473 93.6048 22.35C93.4021 22.5527 93.2421 22.8247 93.1248 23.166C93.0074 23.5073 92.9488 23.9393 92.9488 24.462C92.9488 25.038 93.0661 25.5287 93.3008 25.934C93.5461 26.3287 93.8554 26.6327 94.2288 26.846C94.6128 27.0487 95.0181 27.15 95.4448 27.15C95.8394 27.15 96.1541 27.118 96.3888 27.054C96.6234 26.99 96.8101 26.9153 96.9488 26.83C97.0981 26.734 97.2314 26.654 97.3488 26.59C97.5408 26.494 97.7221 26.446 97.8928 26.446C98.1274 26.446 98.3194 26.526 98.4688 26.686C98.6288 26.846 98.7088 27.0327 98.7088 27.246C98.7088 27.534 98.5594 27.7953 98.2608 28.03C97.9834 28.2647 97.5941 28.4727 97.0928 28.654C96.5914 28.8247 96.0741 28.91 95.5408 28.91Z" fill="white"/>
<path d="M112.234 20.062L108.778 28.19C108.703 28.3927 108.586 28.5527 108.426 28.67C108.277 28.7767 108.111 28.83 107.93 28.83C107.642 28.83 107.429 28.75 107.29 28.59C107.151 28.43 107.082 28.2327 107.082 27.998C107.082 27.902 107.098 27.8007 107.13 27.694L111.114 18.126C111.199 17.9127 111.327 17.7473 111.498 17.63C111.679 17.5127 111.871 17.4647 112.074 17.486C112.266 17.486 112.442 17.5447 112.602 17.662C112.773 17.7687 112.895 17.9233 112.97 18.126L116.906 27.502C116.959 27.6407 116.986 27.7687 116.986 27.886C116.986 28.174 116.89 28.4033 116.698 28.574C116.517 28.7447 116.314 28.83 116.09 28.83C115.898 28.83 115.722 28.7713 115.562 28.654C115.413 28.5367 115.295 28.3767 115.21 28.174L111.77 20.158L112.234 20.062ZM109.274 26.238L110.154 24.398H114.474L114.778 26.238H109.274ZM120.261 27.774C120.261 28.0513 120.165 28.286 119.973 28.478C119.791 28.6593 119.562 28.75 119.285 28.75C119.018 28.75 118.794 28.6593 118.613 28.478C118.431 28.286 118.341 28.0513 118.341 27.774V17.886C118.341 17.6087 118.431 17.3793 118.613 17.198C118.805 17.006 119.039 16.91 119.317 16.91C119.594 16.91 119.818 17.006 119.989 17.198C120.17 17.3793 120.261 17.6087 120.261 17.886V27.774ZM124.573 27.774C124.573 28.0513 124.477 28.286 124.285 28.478C124.104 28.6593 123.874 28.75 123.597 28.75C123.33 28.75 123.106 28.6593 122.925 28.478C122.744 28.286 122.653 28.0513 122.653 27.774V17.886C122.653 17.6087 122.744 17.3793 122.925 17.198C123.117 17.006 123.352 16.91 123.629 16.91C123.906 16.91 124.13 17.006 124.301 17.198C124.482 17.3793 124.573 17.6087 124.573 17.886V27.774ZM139.29 18.094C139.567 18.2327 139.727 18.4513 139.77 18.75C139.823 19.0487 139.749 19.3207 139.546 19.566C139.407 19.758 139.226 19.8647 139.002 19.886C138.789 19.9073 138.57 19.8647 138.346 19.758C138.09 19.6407 137.818 19.55 137.53 19.486C137.253 19.422 136.959 19.39 136.65 19.39C136.074 19.39 135.557 19.4807 135.098 19.662C134.65 19.8433 134.266 20.1047 133.946 20.446C133.626 20.7767 133.381 21.1713 133.21 21.63C133.05 22.0887 132.97 22.5953 132.97 23.15C132.97 23.8007 133.061 24.366 133.242 24.846C133.434 25.326 133.695 25.726 134.026 26.046C134.357 26.366 134.746 26.606 135.194 26.766C135.642 26.9153 136.127 26.99 136.65 26.99C136.938 26.99 137.226 26.9633 137.514 26.91C137.802 26.8567 138.079 26.7607 138.346 26.622C138.57 26.5153 138.789 26.478 139.002 26.51C139.226 26.542 139.413 26.654 139.562 26.846C139.775 27.1127 139.85 27.39 139.786 27.678C139.733 27.9553 139.573 28.158 139.306 28.286C139.029 28.4247 138.741 28.542 138.442 28.638C138.154 28.7233 137.861 28.7873 137.562 28.83C137.263 28.8833 136.959 28.91 136.65 28.91C135.882 28.91 135.151 28.7873 134.458 28.542C133.775 28.2967 133.162 27.934 132.618 27.454C132.085 26.974 131.663 26.3767 131.354 25.662C131.045 24.9367 130.89 24.0993 130.89 23.15C130.89 22.3287 131.029 21.5713 131.306 20.878C131.594 20.1847 131.994 19.5873 132.506 19.086C133.029 18.574 133.642 18.1793 134.346 17.902C135.05 17.614 135.818 17.47 136.65 17.47C137.119 17.47 137.578 17.5233 138.026 17.63C138.474 17.7367 138.895 17.8913 139.29 18.094ZM148.329 20.03C148.607 20.03 148.836 20.1207 149.017 20.302C149.199 20.4833 149.289 20.718 149.289 21.006V27.774C149.289 28.0513 149.199 28.286 149.017 28.478C148.836 28.6593 148.607 28.75 148.329 28.75C148.052 28.75 147.823 28.6593 147.641 28.478C147.46 28.286 147.369 28.0513 147.369 27.774V26.99L147.721 27.134C147.721 27.2727 147.647 27.4433 147.497 27.646C147.348 27.838 147.145 28.03 146.889 28.222C146.633 28.414 146.329 28.5793 145.977 28.718C145.636 28.846 145.263 28.91 144.857 28.91C144.121 28.91 143.455 28.7233 142.857 28.35C142.26 27.966 141.785 27.4433 141.433 26.782C141.092 26.11 140.921 25.342 140.921 24.478C140.921 23.6033 141.092 22.8353 141.433 22.174C141.785 21.502 142.255 20.9793 142.841 20.606C143.428 20.222 144.079 20.03 144.793 20.03C145.252 20.03 145.673 20.0993 146.057 20.238C146.441 20.3767 146.772 20.5527 147.049 20.766C147.337 20.9793 147.556 21.198 147.705 21.422C147.865 21.6353 147.945 21.8167 147.945 21.966L147.369 22.174V21.006C147.369 20.7287 147.46 20.4993 147.641 20.318C147.823 20.126 148.052 20.03 148.329 20.03ZM145.097 27.15C145.567 27.15 145.977 27.0327 146.329 26.798C146.681 26.5633 146.953 26.2433 147.145 25.838C147.348 25.4327 147.449 24.9793 147.449 24.478C147.449 23.966 147.348 23.5073 147.145 23.102C146.953 22.6967 146.681 22.3767 146.329 22.142C145.977 21.9073 145.567 21.79 145.097 21.79C144.639 21.79 144.233 21.9073 143.881 22.142C143.529 22.3767 143.252 22.6967 143.049 23.102C142.857 23.5073 142.761 23.966 142.761 24.478C142.761 24.9793 142.857 25.4327 143.049 25.838C143.252 26.2433 143.529 26.5633 143.881 26.798C144.233 27.0327 144.639 27.15 145.097 27.15ZM151.464 20.35H155.256C155.512 20.35 155.725 20.4353 155.896 20.606C156.067 20.7767 156.152 20.99 156.152 21.246C156.152 21.4913 156.067 21.6993 155.896 21.87C155.725 22.03 155.512 22.11 155.256 22.11H151.464C151.208 22.11 150.995 22.0247 150.824 21.854C150.653 21.6833 150.568 21.47 150.568 21.214C150.568 20.9687 150.653 20.766 150.824 20.606C150.995 20.4353 151.208 20.35 151.464 20.35ZM153.176 18.35C153.453 18.35 153.677 18.446 153.848 18.638C154.029 18.8193 154.12 19.0487 154.12 19.326V26.446C154.12 26.5953 154.147 26.718 154.2 26.814C154.264 26.91 154.344 26.9793 154.44 27.022C154.547 27.0647 154.659 27.086 154.776 27.086C154.904 27.086 155.021 27.0647 155.128 27.022C155.235 26.9687 155.357 26.942 155.496 26.942C155.645 26.942 155.779 27.0113 155.896 27.15C156.024 27.2887 156.088 27.4807 156.088 27.726C156.088 28.0247 155.923 28.27 155.592 28.462C155.272 28.654 154.925 28.75 154.552 28.75C154.328 28.75 154.077 28.734 153.8 28.702C153.533 28.6593 153.277 28.5687 153.032 28.43C152.797 28.2807 152.6 28.0567 152.44 27.758C152.28 27.4593 152.2 27.0487 152.2 26.526V19.326C152.2 19.0487 152.291 18.8193 152.472 18.638C152.664 18.446 152.899 18.35 153.176 18.35ZM161.869 28.91C160.962 28.91 160.173 28.7233 159.501 28.35C158.84 27.966 158.328 27.4487 157.965 26.798C157.613 26.1473 157.437 25.4113 157.437 24.59C157.437 23.63 157.629 22.814 158.013 22.142C158.408 21.4593 158.92 20.9367 159.549 20.574C160.178 20.2113 160.845 20.03 161.549 20.03C162.093 20.03 162.605 20.142 163.085 20.366C163.576 20.59 164.008 20.8993 164.381 21.294C164.754 21.678 165.048 22.126 165.261 22.638C165.485 23.15 165.597 23.694 165.597 24.27C165.586 24.526 165.485 24.734 165.293 24.894C165.101 25.054 164.877 25.134 164.621 25.134H158.509L158.029 23.534H163.901L163.549 23.854V23.422C163.528 23.1127 163.416 22.8353 163.213 22.59C163.021 22.3447 162.776 22.1527 162.477 22.014C162.189 21.8647 161.88 21.79 161.549 21.79C161.229 21.79 160.93 21.8327 160.653 21.918C160.376 22.0033 160.136 22.1473 159.933 22.35C159.73 22.5527 159.57 22.8247 159.453 23.166C159.336 23.5073 159.277 23.9393 159.277 24.462C159.277 25.038 159.394 25.5287 159.629 25.934C159.874 26.3287 160.184 26.6327 160.557 26.846C160.941 27.0487 161.346 27.15 161.773 27.15C162.168 27.15 162.482 27.118 162.717 27.054C162.952 26.99 163.138 26.9153 163.277 26.83C163.426 26.734 163.56 26.654 163.677 26.59C163.869 26.494 164.05 26.446 164.221 26.446C164.456 26.446 164.648 26.526 164.797 26.686C164.957 26.846 165.037 27.0327 165.037 27.246C165.037 27.534 164.888 27.7953 164.589 28.03C164.312 28.2647 163.922 28.4727 163.421 28.654C162.92 28.8247 162.402 28.91 161.869 28.91ZM170.748 20.03C171.196 20.03 171.607 20.0993 171.98 20.238C172.354 20.3767 172.674 20.5527 172.94 20.766C173.218 20.9793 173.431 21.198 173.58 21.422C173.74 21.6353 173.82 21.8167 173.82 21.966L173.404 22.174V21.006C173.404 20.7287 173.495 20.4993 173.676 20.318C173.858 20.126 174.087 20.03 174.364 20.03C174.642 20.03 174.871 20.1207 175.052 20.302C175.234 20.4833 175.324 20.718 175.324 21.006V28.126C175.324 29.054 175.122 29.7953 174.716 30.35C174.322 30.9153 173.799 31.3207 173.148 31.566C172.498 31.822 171.799 31.95 171.052 31.95C170.839 31.95 170.562 31.9233 170.22 31.87C169.879 31.8167 169.554 31.7527 169.244 31.678C168.935 31.6033 168.7 31.534 168.54 31.47C168.22 31.3313 167.996 31.1553 167.868 30.942C167.751 30.7393 167.73 30.5207 167.804 30.286C167.9 29.9767 168.055 29.7633 168.268 29.646C168.482 29.5393 168.706 29.5287 168.94 29.614C169.047 29.646 169.223 29.71 169.468 29.806C169.714 29.902 169.98 29.9873 170.268 30.062C170.567 30.1473 170.828 30.19 171.052 30.19C171.852 30.19 172.444 30.03 172.828 29.71C173.212 29.39 173.404 28.9473 173.404 28.382V26.99L173.596 27.134C173.596 27.2727 173.522 27.4433 173.372 27.646C173.234 27.838 173.036 28.03 172.78 28.222C172.535 28.414 172.242 28.5793 171.9 28.718C171.559 28.846 171.196 28.91 170.812 28.91C170.055 28.91 169.372 28.7233 168.764 28.35C168.156 27.966 167.676 27.4433 167.324 26.782C166.972 26.11 166.796 25.342 166.796 24.478C166.796 23.6033 166.972 22.8353 167.324 22.174C167.676 21.502 168.151 20.9793 168.748 20.606C169.346 20.222 170.012 20.03 170.748 20.03ZM171.052 21.79C170.572 21.79 170.151 21.9073 169.788 22.142C169.426 22.3767 169.143 22.6967 168.94 23.102C168.738 23.5073 168.636 23.966 168.636 24.478C168.636 24.9793 168.738 25.4327 168.94 25.838C169.143 26.2433 169.426 26.5633 169.788 26.798C170.151 27.0327 170.572 27.15 171.052 27.15C171.543 27.15 171.97 27.0327 172.332 26.798C172.695 26.5633 172.978 26.2433 173.18 25.838C173.383 25.4327 173.484 24.9793 173.484 24.478C173.484 23.966 173.383 23.5073 173.18 23.102C172.978 22.6967 172.695 22.3767 172.332 22.142C171.97 21.9073 171.543 21.79 171.052 21.79ZM185.391 24.478C185.391 25.3527 185.194 26.126 184.799 26.798C184.415 27.4593 183.892 27.9767 183.231 28.35C182.58 28.7233 181.85 28.91 181.039 28.91C180.228 28.91 179.492 28.7233 178.831 28.35C178.18 27.9767 177.658 27.4593 177.263 26.798C176.879 26.126 176.687 25.3527 176.687 24.478C176.687 23.6033 176.879 22.8353 177.263 22.174C177.658 21.502 178.18 20.9793 178.831 20.606C179.492 20.222 180.228 20.03 181.039 20.03C181.85 20.03 182.58 20.222 183.231 20.606C183.892 20.9793 184.415 21.502 184.799 22.174C185.194 22.8353 185.391 23.6033 185.391 24.478ZM183.471 24.478C183.471 23.934 183.359 23.4647 183.135 23.07C182.922 22.6647 182.628 22.35 182.255 22.126C181.892 21.902 181.487 21.79 181.039 21.79C180.591 21.79 180.18 21.902 179.807 22.126C179.444 22.35 179.151 22.6647 178.927 23.07C178.714 23.4647 178.607 23.934 178.607 24.478C178.607 25.0113 178.714 25.4807 178.927 25.886C179.151 26.2807 179.444 26.59 179.807 26.814C180.18 27.038 180.591 27.15 181.039 27.15C181.487 27.15 181.892 27.038 182.255 26.814C182.628 26.59 182.922 26.2807 183.135 25.886C183.359 25.4807 183.471 25.0113 183.471 24.478ZM188.031 28.75C187.754 28.75 187.525 28.6593 187.343 28.478C187.162 28.286 187.071 28.0513 187.071 27.774V21.166C187.071 20.8887 187.162 20.6593 187.343 20.478C187.525 20.286 187.754 20.19 188.031 20.19C188.309 20.19 188.538 20.286 188.719 20.478C188.901 20.6593 188.991 20.8887 188.991 21.166V22.67L188.879 21.598C188.997 21.342 189.146 21.118 189.327 20.926C189.519 20.7233 189.733 20.558 189.967 20.43C190.202 20.2913 190.453 20.19 190.719 20.126C190.986 20.062 191.253 20.03 191.519 20.03C191.839 20.03 192.106 20.1207 192.319 20.302C192.543 20.4833 192.655 20.6967 192.655 20.942C192.655 21.294 192.565 21.55 192.383 21.71C192.202 21.8593 192.005 21.934 191.791 21.934C191.589 21.934 191.402 21.8967 191.231 21.822C191.071 21.7473 190.885 21.71 190.671 21.71C190.479 21.71 190.282 21.758 190.079 21.854C189.887 21.9393 189.706 22.078 189.535 22.27C189.375 22.462 189.242 22.702 189.135 22.99C189.039 23.2673 188.991 23.598 188.991 23.982V27.774C188.991 28.0513 188.901 28.286 188.719 28.478C188.538 28.6593 188.309 28.75 188.031 28.75ZM195.817 27.774C195.817 28.0513 195.726 28.286 195.545 28.478C195.363 28.6593 195.134 28.75 194.857 28.75C194.579 28.75 194.35 28.6593 194.169 28.478C193.987 28.286 193.897 28.0513 193.897 27.774V21.166C193.897 20.8887 193.987 20.6593 194.169 20.478C194.35 20.286 194.579 20.19 194.857 20.19C195.134 20.19 195.363 20.286 195.545 20.478C195.726 20.6593 195.817 20.8887 195.817 21.166V27.774ZM194.841 19.15C194.478 19.15 194.222 19.0913 194.073 18.974C193.923 18.8567 193.849 18.6487 193.849 18.35V18.046C193.849 17.7367 193.929 17.5287 194.089 17.422C194.259 17.3047 194.515 17.246 194.857 17.246C195.23 17.246 195.491 17.3047 195.641 17.422C195.79 17.5393 195.865 17.7473 195.865 18.046V18.35C195.865 18.6593 195.785 18.8727 195.625 18.99C195.465 19.0967 195.203 19.15 194.841 19.15ZM201.822 28.91C200.915 28.91 200.126 28.7233 199.454 28.35C198.793 27.966 198.281 27.4487 197.918 26.798C197.566 26.1473 197.39 25.4113 197.39 24.59C197.39 23.63 197.582 22.814 197.966 22.142C198.361 21.4593 198.873 20.9367 199.502 20.574C200.131 20.2113 200.798 20.03 201.502 20.03C202.046 20.03 202.558 20.142 203.038 20.366C203.529 20.59 203.961 20.8993 204.334 21.294C204.707 21.678 205.001 22.126 205.214 22.638C205.438 23.15 205.55 23.694 205.55 24.27C205.539 24.526 205.438 24.734 205.246 24.894C205.054 25.054 204.83 25.134 204.574 25.134H198.462L197.982 23.534H203.854L203.502 23.854V23.422C203.481 23.1127 203.369 22.8353 203.166 22.59C202.974 22.3447 202.729 22.1527 202.43 22.014C202.142 21.8647 201.833 21.79 201.502 21.79C201.182 21.79 200.883 21.8327 200.606 21.918C200.329 22.0033 200.089 22.1473 199.886 22.35C199.683 22.5527 199.523 22.8247 199.406 23.166C199.289 23.5073 199.23 23.9393 199.23 24.462C199.23 25.038 199.347 25.5287 199.582 25.934C199.827 26.3287 200.137 26.6327 200.51 26.846C200.894 27.0487 201.299 27.15 201.726 27.15C202.121 27.15 202.435 27.118 202.67 27.054C202.905 26.99 203.091 26.9153 203.23 26.83C203.379 26.734 203.513 26.654 203.63 26.59C203.822 26.494 204.003 26.446 204.174 26.446C204.409 26.446 204.601 26.526 204.75 26.686C204.91 26.846 204.99 27.0327 204.99 27.246C204.99 27.534 204.841 27.7953 204.542 28.03C204.265 28.2647 203.875 28.4727 203.374 28.654C202.873 28.8247 202.355 28.91 201.822 28.91ZM206.732 27.422C206.625 27.2727 206.577 27.0807 206.588 26.846C206.598 26.6113 206.737 26.4087 207.004 26.238C207.174 26.1313 207.356 26.0887 207.548 26.11C207.74 26.1207 207.926 26.2167 208.108 26.398C208.417 26.7073 208.742 26.9473 209.084 27.118C209.425 27.2887 209.852 27.374 210.364 27.374C210.524 27.3633 210.7 27.342 210.891 27.31C211.084 27.2673 211.249 27.182 211.388 27.054C211.537 26.9153 211.612 26.7073 211.612 26.43C211.612 26.1953 211.532 26.0087 211.372 25.87C211.212 25.7313 210.998 25.614 210.732 25.518C210.476 25.422 210.188 25.3313 209.868 25.246C209.537 25.15 209.196 25.0433 208.844 24.926C208.502 24.8087 208.188 24.6593 207.9 24.478C207.612 24.286 207.377 24.0353 207.196 23.726C207.014 23.4167 206.924 23.0273 206.924 22.558C206.924 22.0247 207.073 21.5713 207.372 21.198C207.67 20.8247 208.054 20.5367 208.524 20.334C209.004 20.1313 209.505 20.03 210.028 20.03C210.358 20.03 210.705 20.0727 211.068 20.158C211.43 20.2327 211.777 20.3607 212.108 20.542C212.438 20.7127 212.716 20.942 212.94 21.23C213.057 21.39 213.126 21.582 213.148 21.806C213.169 22.03 213.068 22.2327 212.844 22.414C212.684 22.542 212.497 22.6007 212.284 22.59C212.07 22.5687 211.894 22.494 211.756 22.366C211.574 22.1313 211.329 21.9447 211.02 21.806C210.721 21.6673 210.374 21.598 209.98 21.598C209.82 21.598 209.644 21.6193 209.452 21.662C209.27 21.694 209.11 21.774 208.972 21.902C208.833 22.0193 208.764 22.2113 208.764 22.478C208.764 22.7233 208.844 22.9207 209.004 23.07C209.164 23.2087 209.377 23.326 209.644 23.422C209.921 23.5073 210.214 23.5927 210.524 23.678C210.844 23.7633 211.169 23.8647 211.5 23.982C211.83 24.0993 212.134 24.254 212.412 24.446C212.689 24.638 212.913 24.8887 213.084 25.198C213.254 25.4967 213.34 25.8807 213.34 26.35C213.34 26.894 213.18 27.358 212.86 27.742C212.54 28.126 212.14 28.4193 211.66 28.622C211.18 28.814 210.689 28.91 210.188 28.91C209.558 28.91 208.929 28.8033 208.299 28.59C207.67 28.366 207.148 27.9767 206.732 27.422Z" fill="white"/>
<g clip-path="url(#clip1_6511_1171)">
<path d="M235.322 21.2167L231.222 25.35C231.133 25.4167 231.033 25.45 230.922 25.45C230.811 25.45 230.711 25.4167 230.622 25.35L226.522 21.2167L225.922 21.8167L230.022 25.9167C230.289 26.1611 230.589 26.2833 230.922 26.2833C231.255 26.2833 231.555 26.1611 231.822 25.9167L235.922 21.8167L235.322 21.2167Z" fill="white"/>
</g>
<defs>
<clipPath id="clip0_6511_1171">
<rect width="16" height="16" fill="white" transform="matrix(1 0 0 -1 20.5 30.75)"/>
</clipPath>
<clipPath id="clip1_6511_1171">
<rect width="10" height="10" fill="white" transform="matrix(1 0 0 -1 225.922 28.75)"/>
</clipPath>
</defs>
</svg>
