<svg width="81" height="31" viewBox="0 0 81 31" fill="none" xmlns="http://www.w3.org/2000/svg">
<rect x="0.5" y="0.25" width="79.84" height="30" rx="5" fill="#FDE0E9"/>
<path d="M16.7 20.39C16.0467 20.39 15.4587 20.3107 14.936 20.152C14.4133 19.984 13.914 19.6947 13.438 19.284C13.3167 19.1813 13.2233 19.0647 13.158 18.934C13.0927 18.8033 13.06 18.6727 13.06 18.542C13.06 18.3273 13.1347 18.1407 13.284 17.982C13.4427 17.814 13.6387 17.73 13.872 17.73C14.0493 17.73 14.208 17.786 14.348 17.898C14.7027 18.1873 15.0527 18.4067 15.398 18.556C15.7527 18.7053 16.1867 18.78 16.7 18.78C17.0453 18.78 17.3627 18.7287 17.652 18.626C17.9413 18.514 18.1747 18.3693 18.352 18.192C18.5293 18.0053 18.618 17.7953 18.618 17.562C18.618 17.282 18.534 17.044 18.366 16.848C18.198 16.652 17.9413 16.4887 17.596 16.358C17.2507 16.218 16.812 16.1107 16.28 16.036C15.776 15.9613 15.3327 15.8493 14.95 15.7C14.5673 15.5413 14.2453 15.3453 13.984 15.112C13.732 14.8693 13.5407 14.5893 13.41 14.272C13.2793 13.9453 13.214 13.5813 13.214 13.18C13.214 12.5733 13.368 12.0553 13.676 11.626C13.9933 11.1967 14.418 10.87 14.95 10.646C15.482 10.422 16.07 10.31 16.714 10.31C17.3207 10.31 17.8807 10.4033 18.394 10.59C18.9167 10.7673 19.3413 10.996 19.668 11.276C19.9387 11.4907 20.074 11.738 20.074 12.018C20.074 12.2233 19.9947 12.41 19.836 12.578C19.6773 12.746 19.4907 12.83 19.276 12.83C19.136 12.83 19.01 12.788 18.898 12.704C18.7487 12.5733 18.548 12.452 18.296 12.34C18.044 12.2187 17.778 12.1207 17.498 12.046C17.218 11.962 16.9567 11.92 16.714 11.92C16.3127 11.92 15.972 11.9713 15.692 12.074C15.4213 12.1767 15.216 12.3167 15.076 12.494C14.936 12.6713 14.866 12.8767 14.866 13.11C14.866 13.39 14.9453 13.6233 15.104 13.81C15.272 13.9873 15.51 14.132 15.818 14.244C16.126 14.3467 16.4947 14.44 16.924 14.524C17.484 14.6267 17.974 14.748 18.394 14.888C18.8233 15.028 19.178 15.21 19.458 15.434C19.738 15.6487 19.948 15.924 20.088 16.26C20.228 16.5867 20.298 16.988 20.298 17.464C20.298 18.0707 20.13 18.5933 19.794 19.032C19.458 19.4707 19.0147 19.8067 18.464 20.04C17.9227 20.2733 17.3347 20.39 16.7 20.39ZM27.8955 12.62C28.1382 12.62 28.3388 12.6993 28.4975 12.858C28.6562 13.0167 28.7355 13.222 28.7355 13.474V19.396C28.7355 19.6387 28.6562 19.844 28.4975 20.012C28.3388 20.1707 28.1382 20.25 27.8955 20.25C27.6528 20.25 27.4522 20.1707 27.2935 20.012C27.1348 19.844 27.0555 19.6387 27.0555 19.396V18.71L27.3635 18.836C27.3635 18.9573 27.2982 19.1067 27.1675 19.284C27.0368 19.452 26.8595 19.62 26.6355 19.788C26.4115 19.956 26.1455 20.1007 25.8375 20.222C25.5388 20.334 25.2122 20.39 24.8575 20.39C24.2135 20.39 23.6302 20.2267 23.1075 19.9C22.5848 19.564 22.1695 19.1067 21.8615 18.528C21.5628 17.94 21.4135 17.268 21.4135 16.512C21.4135 15.7467 21.5628 15.0747 21.8615 14.496C22.1695 13.908 22.5802 13.4507 23.0935 13.124C23.6068 12.788 24.1762 12.62 24.8015 12.62C25.2028 12.62 25.5715 12.6807 25.9075 12.802C26.2435 12.9233 26.5328 13.0773 26.7755 13.264C27.0275 13.4507 27.2188 13.642 27.3495 13.838C27.4895 14.0247 27.5595 14.1833 27.5595 14.314L27.0555 14.496V13.474C27.0555 13.2313 27.1348 13.0307 27.2935 12.872C27.4522 12.704 27.6528 12.62 27.8955 12.62ZM25.0675 18.85C25.4782 18.85 25.8375 18.7473 26.1455 18.542C26.4535 18.3367 26.6915 18.0567 26.8595 17.702C27.0368 17.3473 27.1255 16.9507 27.1255 16.512C27.1255 16.064 27.0368 15.6627 26.8595 15.308C26.6915 14.9533 26.4535 14.6733 26.1455 14.468C25.8375 14.2627 25.4782 14.16 25.0675 14.16C24.6662 14.16 24.3115 14.2627 24.0035 14.468C23.6955 14.6733 23.4528 14.9533 23.2755 15.308C23.1075 15.6627 23.0235 16.064 23.0235 16.512C23.0235 16.9507 23.1075 17.3473 23.2755 17.702C23.4528 18.0567 23.6955 18.3367 24.0035 18.542C24.3115 18.7473 24.6662 18.85 25.0675 18.85ZM32.3745 19.396C32.3745 19.6387 32.2905 19.844 32.1225 20.012C31.9639 20.1707 31.7632 20.25 31.5205 20.25C31.2872 20.25 31.0912 20.1707 30.9325 20.012C30.7739 19.844 30.6945 19.6387 30.6945 19.396V10.744C30.6945 10.5013 30.7739 10.3007 30.9325 10.142C31.1005 9.974 31.3059 9.89 31.5485 9.89C31.7912 9.89 31.9872 9.974 32.1365 10.142C32.2952 10.3007 32.3745 10.5013 32.3745 10.744V19.396ZM37.7193 20.39C36.9259 20.39 36.2353 20.2267 35.6473 19.9C35.0686 19.564 34.6206 19.1113 34.3033 18.542C33.9953 17.9727 33.8413 17.3287 33.8413 16.61C33.8413 15.77 34.0093 15.056 34.3453 14.468C34.6906 13.8707 35.1386 13.4133 35.6893 13.096C36.2399 12.7787 36.8233 12.62 37.4393 12.62C37.9153 12.62 38.3633 12.718 38.7833 12.914C39.2126 13.11 39.5906 13.3807 39.9173 13.726C40.2439 14.062 40.5006 14.454 40.6873 14.902C40.8833 15.35 40.9813 15.826 40.9813 16.33C40.9719 16.554 40.8833 16.736 40.7153 16.876C40.5473 17.016 40.3513 17.086 40.1273 17.086H34.7793L34.3593 15.686H39.4973L39.1893 15.966V15.588C39.1706 15.3173 39.0726 15.0747 38.8953 14.86C38.7273 14.6453 38.5126 14.4773 38.2513 14.356C37.9993 14.2253 37.7286 14.16 37.4393 14.16C37.1593 14.16 36.8979 14.1973 36.6553 14.272C36.4126 14.3467 36.2026 14.4727 36.0253 14.65C35.8479 14.8273 35.7079 15.0653 35.6053 15.364C35.5026 15.6627 35.4513 16.0407 35.4513 16.498C35.4513 17.002 35.5539 17.4313 35.7593 17.786C35.9739 18.1313 36.2446 18.3973 36.5713 18.584C36.9073 18.7613 37.2619 18.85 37.6353 18.85C37.9806 18.85 38.2559 18.822 38.4613 18.766C38.6666 18.71 38.8299 18.6447 38.9513 18.57C39.0819 18.486 39.1986 18.416 39.3013 18.36C39.4693 18.276 39.6279 18.234 39.7773 18.234C39.9826 18.234 40.1506 18.304 40.2812 18.444C40.4213 18.584 40.4913 18.7473 40.4913 18.934C40.4913 19.186 40.3606 19.4147 40.0993 19.62C39.8566 19.8253 39.5159 20.0073 39.0773 20.166C38.6386 20.3153 38.1859 20.39 37.7193 20.39ZM55.5289 15.35C55.5289 16.05 55.4122 16.7033 55.1789 17.31C54.9456 17.9167 54.6142 18.4533 54.1849 18.92C53.7649 19.3773 53.2609 19.7367 52.6729 19.998C52.0942 20.2593 51.4596 20.39 50.7689 20.39C50.0782 20.39 49.4436 20.2593 48.8649 19.998C48.2862 19.7367 47.7822 19.3773 47.3529 18.92C46.9329 18.4533 46.6062 17.9167 46.3729 17.31C46.1396 16.7033 46.0229 16.05 46.0229 15.35C46.0229 14.65 46.1396 13.9967 46.3729 13.39C46.6062 12.7833 46.9329 12.2513 47.3529 11.794C47.7822 11.3273 48.2862 10.9633 48.8649 10.702C49.4436 10.4407 50.0782 10.31 50.7689 10.31C51.4596 10.31 52.0942 10.4407 52.6729 10.702C53.2609 10.9633 53.7649 11.3273 54.1849 11.794C54.6142 12.2513 54.9456 12.7833 55.1789 13.39C55.4122 13.9967 55.5289 14.65 55.5289 15.35ZM53.7089 15.35C53.7089 14.7247 53.5829 14.16 53.3309 13.656C53.0789 13.1427 52.7336 12.7367 52.2949 12.438C51.8562 12.1393 51.3476 11.99 50.7689 11.99C50.1902 11.99 49.6816 12.1393 49.2429 12.438C48.8042 12.7367 48.4589 13.138 48.2069 13.642C47.9642 14.146 47.8429 14.7153 47.8429 15.35C47.8429 15.9753 47.9642 16.5447 48.2069 17.058C48.4589 17.562 48.8042 17.9633 49.2429 18.262C49.6816 18.5607 50.1902 18.71 50.7689 18.71C51.3476 18.71 51.8562 18.5607 52.2949 18.262C52.7336 17.9633 53.0789 17.562 53.3309 17.058C53.5829 16.5447 53.7089 15.9753 53.7089 15.35ZM60.8459 9.89C61.0513 9.89 61.2519 9.918 61.4479 9.974C61.6439 10.03 61.8073 10.1233 61.9379 10.254C62.0686 10.3753 62.1339 10.5387 62.1339 10.744C62.1339 10.9773 62.0639 11.164 61.9239 11.304C61.7933 11.4347 61.6393 11.5 61.4619 11.5C61.3779 11.5 61.2519 11.4813 61.0839 11.444C60.9159 11.3973 60.7526 11.374 60.5939 11.374C60.3606 11.374 60.1786 11.4253 60.0479 11.528C59.9266 11.6307 59.8426 11.752 59.7959 11.892C59.7493 12.0227 59.7259 12.1393 59.7259 12.242V19.396C59.7259 19.6387 59.6466 19.844 59.4879 20.012C59.3293 20.1707 59.1286 20.25 58.8859 20.25C58.6433 20.25 58.4426 20.1707 58.2839 20.012C58.1253 19.844 58.0459 19.6387 58.0459 19.396V12.256C58.0459 11.5933 58.2793 11.0333 58.7459 10.576C59.2126 10.1187 59.9126 9.89 60.8459 9.89ZM60.9999 12.9C61.2239 12.9 61.4106 12.9747 61.5599 13.124C61.7093 13.264 61.7839 13.446 61.7839 13.67C61.7839 13.894 61.7093 14.0807 61.5599 14.23C61.4106 14.37 61.2239 14.44 60.9999 14.44H57.2899C57.0659 14.44 56.8793 14.37 56.7299 14.23C56.5806 14.0807 56.5059 13.894 56.5059 13.67C56.5059 13.446 56.5806 13.264 56.7299 13.124C56.8793 12.9747 57.0659 12.9 57.2899 12.9H60.9999ZM66.9639 9.89C67.1693 9.89 67.3699 9.918 67.5659 9.974C67.7619 10.03 67.9253 10.1233 68.0559 10.254C68.1866 10.3753 68.2519 10.5387 68.2519 10.744C68.2519 10.9773 68.1819 11.164 68.0419 11.304C67.9113 11.4347 67.7573 11.5 67.5799 11.5C67.4959 11.5 67.3699 11.4813 67.2019 11.444C67.0339 11.3973 66.8706 11.374 66.7119 11.374C66.4786 11.374 66.2966 11.4253 66.1659 11.528C66.0446 11.6307 65.9606 11.752 65.9139 11.892C65.8673 12.0227 65.8439 12.1393 65.8439 12.242V19.396C65.8439 19.6387 65.7646 19.844 65.6059 20.012C65.4473 20.1707 65.2466 20.25 65.0039 20.25C64.7613 20.25 64.5606 20.1707 64.4019 20.012C64.2433 19.844 64.1639 19.6387 64.1639 19.396V12.256C64.1639 11.5933 64.3973 11.0333 64.8639 10.576C65.3306 10.1187 66.0306 9.89 66.9639 9.89ZM67.1179 12.9C67.3419 12.9 67.5286 12.9747 67.6779 13.124C67.8273 13.264 67.9019 13.446 67.9019 13.67C67.9019 13.894 67.8273 14.0807 67.6779 14.23C67.5286 14.37 67.3419 14.44 67.1179 14.44H63.4079C63.1839 14.44 62.9973 14.37 62.8479 14.23C62.6986 14.0807 62.6239 13.894 62.6239 13.67C62.6239 13.446 62.6986 13.264 62.8479 13.124C62.9973 12.9747 63.1839 12.9 63.4079 12.9H67.1179Z" fill="#F74B81"/>
</svg>
