<svg width="51" height="51" viewBox="0 0 51 51" fill="none" xmlns="http://www.w3.org/2000/svg">
<rect x="1" y="0.75" width="49" height="49" rx="4.5" fill="white"/>
<rect x="1" y="0.75" width="49" height="49" rx="4.5" stroke="#F1F1F1"/>
<g opacity="0.6" clip-path="url(#clip0_6511_7287)">
<path d="M29.6452 16.91C28.7652 16.95 27.9552 17.19 27.2152 17.63C26.4752 18.07 25.9052 18.67 25.5052 19.43C25.1052 18.67 24.5352 18.07 23.7952 17.63C23.0552 17.19 22.2352 16.97 21.3352 16.97C20.4352 16.97 19.6052 17.22 18.8452 17.72C18.0852 18.22 17.4952 18.87 17.0752 19.67C16.6552 20.47 16.4652 21.33 16.5052 22.25C16.5052 23.73 17.2252 25.43 18.6652 27.35C19.7052 28.71 21.0452 30.11 22.6852 31.55C23.5652 32.27 24.3652 32.89 25.0852 33.41L25.5052 33.71L25.9252 33.41C26.6452 32.93 27.4452 32.31 28.3252 31.55C29.9652 30.11 31.3052 28.71 32.3452 27.35C33.7852 25.43 34.5052 23.73 34.5052 22.25C34.5452 21.33 34.3552 20.47 33.9352 19.67C33.5152 18.87 32.9252 18.22 32.1652 17.72C31.4052 17.22 30.5652 16.95 29.6452 16.91ZM25.5052 31.91C23.7452 30.59 22.1852 29.17 20.8252 27.65C18.9452 25.53 18.0052 23.73 18.0052 22.25C17.9652 21.25 18.2752 20.38 18.9352 19.64C19.5952 18.9 20.4052 18.49 21.3652 18.41C22.3652 18.49 23.1952 18.9 23.8552 19.64C24.5152 20.38 24.8252 21.25 24.7852 22.25H26.2852C26.2052 21.25 26.4952 20.38 27.1552 19.64C27.8152 18.9 28.6452 18.49 29.6452 18.41C30.6052 18.49 31.4152 18.9 32.0752 19.64C32.7352 20.38 33.0452 21.25 33.0052 22.25C33.0052 23.73 32.0652 25.53 30.1852 27.65C28.8252 29.17 27.2652 30.59 25.5052 31.91Z" fill="#333333"/>
</g>
<defs>
<clipPath id="clip0_6511_7287">
<rect width="18" height="18" fill="white" transform="matrix(1 0 0 -1 16.5 34.25)"/>
</clipPath>
</defs>
</svg>
