<svg width="160" height="51" viewBox="0 0 160 51" fill="none" xmlns="http://www.w3.org/2000/svg">
<rect x="0.199219" y="0.25" width="159.59" height="50" rx="5" fill="#3BB77E"/>
<g clip-path="url(#clip0_6511_7283)">
<path d="M36.1992 17.2233H23.0259V17.01C22.9548 16.5122 22.7326 16.0944 22.3592 15.7567C21.9859 15.4189 21.5326 15.25 20.9992 15.25H20.1992V16.5833H20.9992C21.177 16.5833 21.3281 16.6367 21.4526 16.7433C21.577 16.85 21.657 16.9922 21.6926 17.17L22.7592 26.13C22.7948 26.6633 22.9992 27.09 23.3726 27.41C23.7459 27.73 24.1992 27.9078 24.7326 27.9433H33.5326V26.5567H24.7326C24.5548 26.5567 24.4037 26.5033 24.2792 26.3967C24.1548 26.29 24.0748 26.1478 24.0392 25.97L23.9859 25.2233H34.7592L36.1992 17.2233ZM33.6392 23.89H23.8259L23.1859 18.5567H34.5992L33.6392 23.89ZM23.5592 29.9167C23.5237 30.2722 23.6392 30.5833 23.9059 30.85C24.1726 31.1167 24.4926 31.25 24.8659 31.25C25.2392 31.25 25.5503 31.1167 25.7992 30.85C26.0481 30.5833 26.1814 30.2722 26.1992 29.9167C26.217 29.5611 26.0926 29.25 25.8259 28.9833C25.5592 28.7167 25.2392 28.5833 24.8659 28.5833C24.4926 28.5833 24.1814 28.7167 23.9326 28.9833C23.6837 29.25 23.5592 29.5611 23.5592 29.9167ZM30.2259 29.9167C30.1903 30.2722 30.3059 30.5833 30.5726 30.85C30.8392 31.1167 31.1592 31.25 31.5326 31.25C31.9059 31.25 32.217 31.1167 32.4659 30.85C32.7148 30.5833 32.8481 30.2722 32.8659 29.9167C32.8837 29.5611 32.7592 29.25 32.4926 28.9833C32.2259 28.7167 31.9059 28.5833 31.5326 28.5833C31.1592 28.5833 30.8481 28.7167 30.5992 28.9833C30.3503 29.25 30.2259 29.5611 30.2259 29.9167Z" fill="white"/>
</g>
<path d="M52.4391 22.562L48.9831 30.69C48.9084 30.8927 48.7911 31.0527 48.6311 31.17C48.4818 31.2767 48.3164 31.33 48.1351 31.33C47.8471 31.33 47.6338 31.25 47.4951 31.09C47.3564 30.93 47.2871 30.7327 47.2871 30.498C47.2871 30.402 47.3031 30.3007 47.3351 30.194L51.3191 20.626C51.4044 20.4127 51.5324 20.2473 51.7031 20.13C51.8844 20.0127 52.0764 19.9647 52.2791 19.986C52.4711 19.986 52.6471 20.0447 52.8071 20.162C52.9778 20.2687 53.1004 20.4233 53.1751 20.626L57.1111 30.002C57.1644 30.1407 57.1911 30.2687 57.1911 30.386C57.1911 30.674 57.0951 30.9033 56.9031 31.074C56.7218 31.2447 56.5191 31.33 56.2951 31.33C56.1031 31.33 55.9271 31.2713 55.7671 31.154C55.6178 31.0367 55.5004 30.8767 55.4151 30.674L51.9751 22.658L52.4391 22.562ZM49.4791 28.738L50.3591 26.898H54.6791L54.9831 28.738H49.4791ZM65.8939 19.41C66.1712 19.41 66.4005 19.5007 66.5819 19.682C66.7632 19.8633 66.8539 20.098 66.8539 20.386V30.274C66.8539 30.5513 66.7632 30.786 66.5819 30.978C66.4005 31.1593 66.1712 31.25 65.8939 31.25C65.6165 31.25 65.3872 31.1593 65.2059 30.978C65.0245 30.786 64.9339 30.5513 64.9339 30.274V29.49L65.2859 29.634C65.2859 29.7727 65.2112 29.9433 65.0619 30.146C64.9125 30.338 64.7099 30.53 64.4539 30.722C64.1979 30.914 63.8939 31.0793 63.5419 31.218C63.2005 31.346 62.8272 31.41 62.4219 31.41C61.6859 31.41 61.0192 31.2233 60.4219 30.85C59.8245 30.466 59.3499 29.9433 58.9979 29.282C58.6565 28.61 58.4859 27.842 58.4859 26.978C58.4859 26.1033 58.6565 25.3353 58.9979 24.674C59.3499 24.002 59.8192 23.4793 60.4059 23.106C60.9925 22.722 61.6432 22.53 62.3579 22.53C62.8165 22.53 63.2379 22.5993 63.6219 22.738C64.0059 22.8767 64.3365 23.0527 64.6139 23.266C64.9019 23.4793 65.1205 23.698 65.2699 23.922C65.4299 24.1353 65.5099 24.3167 65.5099 24.466L64.9339 24.674V20.386C64.9339 20.1087 65.0245 19.8793 65.2059 19.698C65.3872 19.506 65.6165 19.41 65.8939 19.41ZM62.6619 29.65C63.1312 29.65 63.5419 29.5327 63.8939 29.298C64.2459 29.0633 64.5179 28.7433 64.7099 28.338C64.9125 27.9327 65.0139 27.4793 65.0139 26.978C65.0139 26.466 64.9125 26.0073 64.7099 25.602C64.5179 25.1967 64.2459 24.8767 63.8939 24.642C63.5419 24.4073 63.1312 24.29 62.6619 24.29C62.2032 24.29 61.7979 24.4073 61.4459 24.642C61.0939 24.8767 60.8165 25.1967 60.6139 25.602C60.4219 26.0073 60.3259 26.466 60.3259 26.978C60.3259 27.4793 60.4219 27.9327 60.6139 28.338C60.8165 28.7433 61.0939 29.0633 61.4459 29.298C61.7979 29.5327 62.2032 29.65 62.6619 29.65ZM76.4407 19.41C76.7181 19.41 76.9474 19.5007 77.1287 19.682C77.3101 19.8633 77.4007 20.098 77.4007 20.386V30.274C77.4007 30.5513 77.3101 30.786 77.1287 30.978C76.9474 31.1593 76.7181 31.25 76.4407 31.25C76.1634 31.25 75.9341 31.1593 75.7527 30.978C75.5714 30.786 75.4807 30.5513 75.4807 30.274V29.49L75.8327 29.634C75.8327 29.7727 75.7581 29.9433 75.6087 30.146C75.4594 30.338 75.2567 30.53 75.0007 30.722C74.7447 30.914 74.4407 31.0793 74.0887 31.218C73.7474 31.346 73.3741 31.41 72.9687 31.41C72.2327 31.41 71.5661 31.2233 70.9687 30.85C70.3714 30.466 69.8967 29.9433 69.5447 29.282C69.2034 28.61 69.0327 27.842 69.0327 26.978C69.0327 26.1033 69.2034 25.3353 69.5447 24.674C69.8967 24.002 70.3661 23.4793 70.9527 23.106C71.5394 22.722 72.1901 22.53 72.9047 22.53C73.3634 22.53 73.7847 22.5993 74.1687 22.738C74.5527 22.8767 74.8834 23.0527 75.1607 23.266C75.4487 23.4793 75.6674 23.698 75.8167 23.922C75.9767 24.1353 76.0567 24.3167 76.0567 24.466L75.4807 24.674V20.386C75.4807 20.1087 75.5714 19.8793 75.7527 19.698C75.9341 19.506 76.1634 19.41 76.4407 19.41ZM73.2087 29.65C73.6781 29.65 74.0887 29.5327 74.4407 29.298C74.7927 29.0633 75.0647 28.7433 75.2567 28.338C75.4594 27.9327 75.5607 27.4793 75.5607 26.978C75.5607 26.466 75.4594 26.0073 75.2567 25.602C75.0647 25.1967 74.7927 24.8767 74.4407 24.642C74.0887 24.4073 73.6781 24.29 73.2087 24.29C72.7501 24.29 72.3447 24.4073 71.9927 24.642C71.6407 24.8767 71.3634 25.1967 71.1607 25.602C70.9687 26.0073 70.8727 26.466 70.8727 26.978C70.8727 27.4793 70.9687 27.9327 71.1607 28.338C71.3634 28.7433 71.6407 29.0633 71.9927 29.298C72.3447 29.5327 72.7501 29.65 73.2087 29.65ZM85.06 22.85H88.852C89.108 22.85 89.3213 22.9353 89.492 23.106C89.6626 23.2767 89.748 23.49 89.748 23.746C89.748 23.9913 89.6626 24.1993 89.492 24.37C89.3213 24.53 89.108 24.61 88.852 24.61H85.06C84.804 24.61 84.5906 24.5247 84.42 24.354C84.2493 24.1833 84.164 23.97 84.164 23.714C84.164 23.4687 84.2493 23.266 84.42 23.106C84.5906 22.9353 84.804 22.85 85.06 22.85ZM86.772 20.85C87.0493 20.85 87.2733 20.946 87.444 21.138C87.6253 21.3193 87.716 21.5487 87.716 21.826V28.946C87.716 29.0953 87.7426 29.218 87.796 29.314C87.86 29.41 87.94 29.4793 88.036 29.522C88.1426 29.5647 88.2546 29.586 88.372 29.586C88.5 29.586 88.6173 29.5647 88.724 29.522C88.8306 29.4687 88.9533 29.442 89.092 29.442C89.2413 29.442 89.3746 29.5113 89.492 29.65C89.62 29.7887 89.684 29.9807 89.684 30.226C89.684 30.5247 89.5186 30.77 89.188 30.962C88.868 31.154 88.5213 31.25 88.148 31.25C87.924 31.25 87.6733 31.234 87.396 31.202C87.1293 31.1593 86.8733 31.0687 86.628 30.93C86.3933 30.7807 86.196 30.5567 86.036 30.258C85.876 29.9593 85.796 29.5487 85.796 29.026V21.826C85.796 21.5487 85.8866 21.3193 86.068 21.138C86.26 20.946 86.4946 20.85 86.772 20.85ZM100.237 26.978C100.237 27.8527 100.039 28.626 99.6447 29.298C99.2607 29.9593 98.7381 30.4767 98.0767 30.85C97.4261 31.2233 96.6954 31.41 95.8847 31.41C95.0741 31.41 94.3381 31.2233 93.6767 30.85C93.0261 30.4767 92.5034 29.9593 92.1087 29.298C91.7247 28.626 91.5327 27.8527 91.5327 26.978C91.5327 26.1033 91.7247 25.3353 92.1087 24.674C92.5034 24.002 93.0261 23.4793 93.6767 23.106C94.3381 22.722 95.0741 22.53 95.8847 22.53C96.6954 22.53 97.4261 22.722 98.0767 23.106C98.7381 23.4793 99.2607 24.002 99.6447 24.674C100.039 25.3353 100.237 26.1033 100.237 26.978ZM98.3167 26.978C98.3167 26.434 98.2047 25.9647 97.9807 25.57C97.7674 25.1647 97.4741 24.85 97.1007 24.626C96.7381 24.402 96.3327 24.29 95.8847 24.29C95.4367 24.29 95.0261 24.402 94.6527 24.626C94.2901 24.85 93.9967 25.1647 93.7727 25.57C93.5594 25.9647 93.4527 26.434 93.4527 26.978C93.4527 27.5113 93.5594 27.9807 93.7727 28.386C93.9967 28.7807 94.2901 29.09 94.6527 29.314C95.0261 29.538 95.4367 29.65 95.8847 29.65C96.3327 29.65 96.7381 29.538 97.1007 29.314C97.4741 29.09 97.7674 28.7807 97.9807 28.386C98.2047 27.9807 98.3167 27.5113 98.3167 26.978ZM111.209 22.53C111.817 22.53 112.345 22.594 112.793 22.722C113.252 22.85 113.604 23.0313 113.849 23.266C114.105 23.49 114.233 23.762 114.233 24.082C114.233 24.2953 114.169 24.498 114.041 24.69C113.913 24.8713 113.727 24.962 113.481 24.962C113.311 24.962 113.167 24.9407 113.049 24.898C112.943 24.8447 112.847 24.7807 112.761 24.706C112.676 24.6313 112.575 24.562 112.457 24.498C112.351 24.434 112.185 24.386 111.961 24.354C111.748 24.3113 111.588 24.29 111.481 24.29C110.937 24.29 110.473 24.4073 110.089 24.642C109.716 24.8767 109.428 25.1967 109.225 25.602C109.023 25.9967 108.921 26.4553 108.921 26.978C108.921 27.49 109.023 27.9487 109.225 28.354C109.439 28.7487 109.727 29.0633 110.089 29.298C110.463 29.5327 110.889 29.65 111.369 29.65C111.636 29.65 111.865 29.634 112.057 29.602C112.249 29.57 112.409 29.522 112.537 29.458C112.687 29.3727 112.82 29.282 112.937 29.186C113.055 29.09 113.231 29.042 113.465 29.042C113.743 29.042 113.956 29.1327 114.105 29.314C114.255 29.4847 114.329 29.698 114.329 29.954C114.329 30.2207 114.18 30.466 113.881 30.69C113.583 30.9033 113.188 31.0793 112.697 31.218C112.217 31.346 111.695 31.41 111.129 31.41C110.287 31.41 109.556 31.218 108.937 30.834C108.319 30.4393 107.839 29.906 107.497 29.234C107.167 28.562 107.001 27.81 107.001 26.978C107.001 26.1033 107.177 25.3353 107.529 24.674C107.892 24.002 108.388 23.4793 109.017 23.106C109.657 22.722 110.388 22.53 111.209 22.53ZM123.222 22.53C123.499 22.53 123.729 22.6207 123.91 22.802C124.091 22.9833 124.182 23.218 124.182 23.506V30.274C124.182 30.5513 124.091 30.786 123.91 30.978C123.729 31.1593 123.499 31.25 123.222 31.25C122.945 31.25 122.715 31.1593 122.534 30.978C122.353 30.786 122.262 30.5513 122.262 30.274V29.49L122.614 29.634C122.614 29.7727 122.539 29.9433 122.39 30.146C122.241 30.338 122.038 30.53 121.782 30.722C121.526 30.914 121.222 31.0793 120.87 31.218C120.529 31.346 120.155 31.41 119.75 31.41C119.014 31.41 118.347 31.2233 117.75 30.85C117.153 30.466 116.678 29.9433 116.326 29.282C115.985 28.61 115.814 27.842 115.814 26.978C115.814 26.1033 115.985 25.3353 116.326 24.674C116.678 24.002 117.147 23.4793 117.734 23.106C118.321 22.722 118.971 22.53 119.686 22.53C120.145 22.53 120.566 22.5993 120.95 22.738C121.334 22.8767 121.665 23.0527 121.942 23.266C122.23 23.4793 122.449 23.698 122.598 23.922C122.758 24.1353 122.838 24.3167 122.838 24.466L122.262 24.674V23.506C122.262 23.2287 122.353 22.9993 122.534 22.818C122.715 22.626 122.945 22.53 123.222 22.53ZM119.99 29.65C120.459 29.65 120.87 29.5327 121.222 29.298C121.574 29.0633 121.846 28.7433 122.038 28.338C122.241 27.9327 122.342 27.4793 122.342 26.978C122.342 26.466 122.241 26.0073 122.038 25.602C121.846 25.1967 121.574 24.8767 121.222 24.642C120.87 24.4073 120.459 24.29 119.99 24.29C119.531 24.29 119.126 24.4073 118.774 24.642C118.422 24.8767 118.145 25.1967 117.942 25.602C117.75 26.0073 117.654 26.466 117.654 26.978C117.654 27.4793 117.75 27.9327 117.942 28.338C118.145 28.7433 118.422 29.0633 118.774 29.298C119.126 29.5327 119.531 29.65 119.99 29.65ZM127.721 31.25C127.444 31.25 127.214 31.1593 127.033 30.978C126.852 30.786 126.761 30.5513 126.761 30.274V23.666C126.761 23.3887 126.852 23.1593 127.033 22.978C127.214 22.786 127.444 22.69 127.721 22.69C127.998 22.69 128.228 22.786 128.409 22.978C128.59 23.1593 128.681 23.3887 128.681 23.666V25.17L128.569 24.098C128.686 23.842 128.836 23.618 129.017 23.426C129.209 23.2233 129.422 23.058 129.657 22.93C129.892 22.7913 130.142 22.69 130.409 22.626C130.676 22.562 130.942 22.53 131.209 22.53C131.529 22.53 131.796 22.6207 132.009 22.802C132.233 22.9833 132.345 23.1967 132.345 23.442C132.345 23.794 132.254 24.05 132.073 24.21C131.892 24.3593 131.694 24.434 131.481 24.434C131.278 24.434 131.092 24.3967 130.921 24.322C130.761 24.2473 130.574 24.21 130.361 24.21C130.169 24.21 129.972 24.258 129.769 24.354C129.577 24.4393 129.396 24.578 129.225 24.77C129.065 24.962 128.932 25.202 128.825 25.49C128.729 25.7673 128.681 26.098 128.681 26.482V30.274C128.681 30.5513 128.59 30.786 128.409 30.978C128.228 31.1593 127.998 31.25 127.721 31.25ZM134.294 22.85H138.086C138.342 22.85 138.556 22.9353 138.726 23.106C138.897 23.2767 138.982 23.49 138.982 23.746C138.982 23.9913 138.897 24.1993 138.726 24.37C138.556 24.53 138.342 24.61 138.086 24.61H134.294C134.038 24.61 133.825 24.5247 133.654 24.354C133.484 24.1833 133.398 23.97 133.398 23.714C133.398 23.4687 133.484 23.266 133.654 23.106C133.825 22.9353 134.038 22.85 134.294 22.85ZM136.006 20.85C136.284 20.85 136.508 20.946 136.678 21.138C136.86 21.3193 136.95 21.5487 136.95 21.826V28.946C136.95 29.0953 136.977 29.218 137.03 29.314C137.094 29.41 137.174 29.4793 137.27 29.522C137.377 29.5647 137.489 29.586 137.606 29.586C137.734 29.586 137.852 29.5647 137.958 29.522C138.065 29.4687 138.188 29.442 138.326 29.442C138.476 29.442 138.609 29.5113 138.726 29.65C138.854 29.7887 138.918 29.9807 138.918 30.226C138.918 30.5247 138.753 30.77 138.422 30.962C138.102 31.154 137.756 31.25 137.382 31.25C137.158 31.25 136.908 31.234 136.63 31.202C136.364 31.1593 136.108 31.0687 135.862 30.93C135.628 30.7807 135.43 30.5567 135.27 30.258C135.11 29.9593 135.03 29.5487 135.03 29.026V21.826C135.03 21.5487 135.121 21.3193 135.302 21.138C135.494 20.946 135.729 20.85 136.006 20.85Z" fill="white"/>
<defs>
<clipPath id="clip0_6511_7283">
<rect width="16.5" height="16" fill="white" transform="matrix(1 0 0 -1 20.1992 31.25)"/>
</clipPath>
</defs>
</svg>
