<svg width="91" height="51" viewBox="0 0 91 51" fill="none" xmlns="http://www.w3.org/2000/svg">
<rect x="1.5" y="1.25" width="88" height="48" rx="4" fill="white"/>
<rect x="1.5" y="1.25" width="88" height="48" rx="4" stroke="#3BB77E" stroke-width="2"/>
<rect width="36" height="24" transform="translate(32.5 13.25)" fill="white"/>
<path d="M40.644 30.162V31.25H34.5V30.162H36.956V22.346C36.956 22.1113 36.964 21.874 36.98 21.634L34.94 23.386C34.8707 23.4447 34.8013 23.482 34.732 23.498C34.6627 23.5087 34.5987 23.5087 34.54 23.498C34.4813 23.4873 34.4253 23.466 34.372 23.434C34.324 23.402 34.2867 23.3673 34.26 23.33L33.812 22.714L37.228 19.762H38.388V30.162H40.644Z" fill="black"/>
<g clip-path="url(#clip0_6511_7275)">
<path d="M68.98 40.5967C68.6244 40.5967 68.3044 40.4545 68.02 40.17L64.5 36.65L65.46 35.7433L68.98 39.2633L72.5 35.7433L73.46 36.65L69.94 40.17C69.6556 40.4545 69.3356 40.5967 68.98 40.5967Z" fill="#3BB77E"/>
</g>
<g clip-path="url(#clip1_6511_7275)">
<path d="M72.5 14.3833L68.98 10.8633L65.46 14.3833L64.5 13.4233L68.02 9.9033C68.3044 9.65441 68.6244 9.52997 68.98 9.52997C69.3356 9.52997 69.6556 9.65441 69.94 9.9033L73.46 13.4233L72.5 14.3833Z" fill="#3BB77E"/>
</g>
<defs>
<clipPath id="clip0_6511_7275">
<rect width="16" height="16" fill="white" transform="matrix(1 0 0 -1 64.5 46.25)"/>
</clipPath>
<clipPath id="clip1_6511_7275">
<rect width="16" height="16" fill="white" transform="matrix(1 0 0 -1 64.5 20.25)"/>
</clipPath>
</defs>
</svg>
